<?xml version="1.0" encoding="utf-8"?>
<!-- Generator: Adobe Illustrator 22.0.1, SVG Export Plug-In . SVG Version: 6.00 Build 0)  -->
<svg version="1.1" id="Layer_1" xmlns="http://www.w3.org/2000/svg" xmlns:xlink="http://www.w3.org/1999/xlink" x="0px" y="0px"
	 viewBox="0 0 53 53" style="enable-background:new 0 0 53 53; fill:#343a3f" xml:space="preserve">
<g>
	<g>
		<path d="M34.023407,17.9441528h-2.8652344c-0.2763672,0-0.5-0.2236328-0.5-0.5s0.2236328-0.5,0.5-0.5h2.8652344
			c0.2763672,0,0.5,0.2236328,0.5,0.5S34.2997742,17.9441528,34.023407,17.9441528z"/>
	</g>
	<g>
		<g>
			<g>
				<g>
					<g>
						<g>
							<g>
								<g>
									<path d="M6.6069031,7.7009888c0.4277344,0,0.7753906-0.3476563,0.7753906-0.7753906
										S7.0346375,6.1502075,6.6069031,6.1502075c-0.4272461,0-0.7749023,0.3476563-0.7749023,0.7753906
										S6.179657,7.7009888,6.6069031,7.7009888z"/>
									<path d="M11.5683289,7.7009888c0.4277344,0,0.7753906-0.3476563,0.7753906-0.7753906
										s-0.3476563-0.7753906-0.7753906-0.7753906c-0.4272461,0-0.7749023,0.3476563-0.7749023,0.7753906
										S11.1410828,7.7009888,11.5683289,7.7009888z"/>
									<circle cx="16.5297546" cy="6.9255981" r="0.7751465"/>
									<path d="M44.6740417,10.9841919V6.8997192c0-2.5899658-2.0899658-4.6799316-4.6700439-4.6799316h-33
										c-2.5898438,0-4.6799316,2.0899658-4.6799316,4.6799316v4.0844727H44.6740417z M26.3764343,6.4255981h15.2944336
										c0.2763672,0,0.5,0.2236328,0.5,0.5s-0.2236328,0.5-0.5,0.5H26.3764343c-0.2763672,0-0.5-0.2236328-0.5-0.5
										S26.1000671,6.4255981,26.3764343,6.4255981z M16.5297546,5.1502075c0.9785156,0,1.7749023,0.796875,1.7749023,1.7753906
										s-0.7963867,1.7753906-1.7749023,1.7753906s-1.7749023-0.796875-1.7749023-1.7753906
										S15.551239,5.1502075,16.5297546,5.1502075z M11.5683289,5.1502075c0.9790039,0,1.7753906,0.796875,1.7753906,1.7753906
										s-0.7963867,1.7753906-1.7753906,1.7753906c-0.9785156,0-1.7749023-0.796875-1.7749023-1.7753906
										S10.5898132,5.1502075,11.5683289,5.1502075z M6.6069031,5.1502075c0.9790039,0,1.7753906,0.796875,1.7753906,1.7753906
										S7.585907,8.7009888,6.6069031,8.7009888c-0.9785156,0-1.7749023-0.796875-1.7749023-1.7753906
										S5.6283875,5.1502075,6.6069031,5.1502075z"/>
									<path d="M31.6957703,44.4363403c-0.1411133-0.2880859-0.2758789-0.6103516-0.3979492-0.9550781l-1.097168-0.1542969
										c-0.796875-0.1074219-1.4018707-0.7988281-1.4018707-1.6083984v-2.6083984h-3.9545746c-0.2763672,0-0.5-0.2236328-0.5-0.5
										s0.2236328-0.5,0.5-0.5h4.2233276c0.2441406-0.388916,0.6300659-0.682373,1.1174927-0.7587891l1.1142578-0.1503906
										c0.1244965-0.3505859,0.2568359-0.6679688,0.3984375-0.9570313l-0.6592407-0.8731689
										c-0.0908203,0.1253662-0.2311401,0.2120361-0.3978882,0.2120361H18.8305359c-0.2763672,0-0.5-0.2236328-0.5-0.5
										s0.2236328-0.5,0.5-0.5h11.8100586c0.0339355,0,0.0635986,0.0129395,0.0956421,0.0192871
										c-0.0718994-0.4920654,0.0617065-1.0004883,0.4375458-1.3757324l1.9570465-1.9501953
										c0.2875977-0.296875,0.7080078-0.4736328,1.1416016-0.4736328c0.3564453,0,0.7070313,0.1191406,0.9873047,0.3359375
										l0.8789063,0.6621094c0.2998047-0.1445313,0.6210938-0.2783203,0.9580078-0.3984375l0.1484375-1.0927734
										c0.105957-0.8007813,0.7978516-1.40625,1.6079102-1.40625h2.7685547c0.809082,0,1.5009766,0.6054688,1.6088867,1.4082031
										l0.1533203,1.0927734c0.3320313,0.1171875,0.6459961,0.2480469,0.9526367,0.3964844l0.3376465-0.2543945V11.9841919
										H2.3240662v27.9155273c0,2.5800781,2.0900879,4.6700439,4.6799316,4.6700439h24.5916748L31.6957703,44.4363403z
										 M33.8510437,28.5271606H22.4032898c-0.2763672,0-0.5-0.2236328-0.5-0.5s0.2236328-0.5,0.5-0.5h11.4477539
										c0.2763672,0,0.5,0.2236328,0.5,0.5S34.1274109,28.5271606,33.8510437,28.5271606z M33.8510437,24.9998169H18.4501648
										c-0.2763824,0-0.5-0.2236328-0.5-0.5s0.2236176-0.5,0.5-0.5h15.4008789c0.2763672,0,0.5,0.2236328,0.5,0.5
										S34.1274109,24.9998169,33.8510437,24.9998169z M34.523407,20.9714966c0,0.2763672-0.2236328,0.5-0.5,0.5h-7.0834961
										c-0.2763672,0-0.5-0.2236328-0.5-0.5s0.2236328-0.5,0.5-0.5h7.0834961
										C34.2997742,20.4714966,34.523407,20.6951294,34.523407,20.9714966z M25.5868835,16.9441528h3.3056641
										c0.2763672,0,0.5,0.2236328,0.5,0.5s-0.2236328,0.5-0.5,0.5h-3.3056641c-0.2763672,0-0.5-0.2236328-0.5-0.5
										S25.3105164,16.9441528,25.5868835,16.9441528z M24.6010437,20.9714966c0,0.2763672-0.2236328,0.5-0.5,0.5h-3.3427734
										c-0.2763672,0-0.5-0.2236328-0.5-0.5s0.2236328-0.5,0.5-0.5h3.3427734
										C24.3774109,20.4714966,24.6010437,20.6951294,24.6010437,20.9714966z M19.5468445,16.9441528H22.79245
										c0.2763672,0,0.5,0.2236328,0.5,0.5s-0.2236328,0.5-0.5,0.5h-3.2456055c-0.2763672,0-0.5-0.2236328-0.5-0.5
										S19.2704773,16.9441528,19.5468445,16.9441528z M12.6401062,16.9441528h3.6611328c0.2763672,0,0.5,0.2236328,0.5,0.5
										s-0.2236328,0.5-0.5,0.5h-3.6611328c-0.2763672,0-0.5-0.2236328-0.5-0.5S12.363739,16.9441528,12.6401062,16.9441528z
										 M12.6401062,20.4714966h5.3769531c0.2763672,0,0.5,0.2236328,0.5,0.5s-0.2236328,0.5-0.5,0.5h-5.3769531
										c-0.2763672,0-0.5-0.2236328-0.5-0.5S12.363739,20.4714966,12.6401062,20.4714966z M12.6401062,23.9998169h2.9448242
										c0.2763672,0,0.5,0.2236328,0.5,0.5s-0.2236328,0.5-0.5,0.5h-2.9448242c-0.2763672,0-0.5-0.2236328-0.5-0.5
										S12.363739,23.9998169,12.6401062,23.9998169z M12.6401062,27.5271606h7.3222656c0.2763672,0,0.5,0.2236328,0.5,0.5
										s-0.2236328,0.5-0.5,0.5h-7.3222656c-0.2763672,0-0.5-0.2236328-0.5-0.5S12.363739,27.5271606,12.6401062,27.5271606z
										 M12.6401062,31.0545044h3.2543945c0.2763672,0,0.5,0.2236328,0.5,0.5s-0.2236328,0.5-0.5,0.5h-3.2543945
										c-0.2763672,0-0.5-0.2236328-0.5-0.5S12.363739,31.0545044,12.6401062,31.0545044z M12.6401062,34.5828247h3.2543945
										c0.2763672,0,0.5,0.2236328,0.5,0.5s-0.2236328,0.5-0.5,0.5h-3.2543945c-0.2763672,0-0.5-0.2236328-0.5-0.5
										S12.363739,34.5828247,12.6401062,34.5828247z M8.8871765,21.7400513
										c0.0668945,0.0869141,0.1030273,0.1933594,0.1030273,0.3037109v3.0175781h1.8295898c0.2763672,0,0.5,0.2236328,0.5,0.5
										s-0.2236328,0.5-0.5,0.5H8.4902039c-0.2763672,0-0.5-0.2236328-0.5-0.5v-3.3476563l-1.0629883-1.3876953
										c-0.137207-0.1787109-0.137207-0.4287109,0-0.6083984l1.0629883-1.3857422v-3.3476563c0-0.2763672,0.2236328-0.5,0.5-0.5
										h2.3295898c0.2763672,0,0.5,0.2236328,0.5,0.5s-0.2236328,0.5-0.5,0.5H8.9902039V19.00177
										c0,0.1103516-0.0361328,0.2167969-0.1030273,0.3046875L7.954071,20.5222778L8.8871765,21.7400513z M17.2738953,39.1101685
										h-4.6337891c-0.2763672,0-0.5-0.2236328-0.5-0.5s0.2236328-0.5,0.5-0.5h4.6337891c0.2763672,0,0.5,0.2236328,0.5,0.5
										S17.5502625,39.1101685,17.2738953,39.1101685z M17.5170593,31.5545044c0-0.2763672,0.2236328-0.5,0.5-0.5h10.8754883
										c0.2763672,0,0.5,0.2236328,0.5,0.5s-0.2236328,0.5-0.5,0.5H18.0170593
										C17.7406921,32.0545044,17.5170593,31.8308716,17.5170593,31.5545044z M22.79245,39.1101685h-3.5019531
										c-0.2763672,0-0.5-0.2236328-0.5-0.5s0.2236328-0.5,0.5-0.5H22.79245c0.2763672,0,0.5,0.2236328,0.5,0.5
										S23.0688171,39.1101685,22.79245,39.1101685z"/>
								</g>
								<g>
									<path d="M40.2372742,35.5828247c-2.6240234,0-4.7587891,2.1347656-4.7587891,4.7587891
										s2.1347656,4.7587891,4.7587891,4.7587891c2.6245117,0,4.7592773-2.1347656,4.7592773-4.7587891
										S42.8617859,35.5828247,40.2372742,35.5828247z"/>
									<path d="M50.1416931,38.3400269l-1.3391113-0.1873779c-0.2428589-0.034668-0.4370728-0.2081299-0.5064697-0.4370117
										c-0.1387939-0.4163818-0.3052979-0.8256836-0.5065308-1.2072754
										c-0.1109619-0.2220459-0.0971069-0.4787598,0.048584-0.6799316l0.8117676-1.0754395
										c0.1873169-0.2497559,0.1665649-0.5966797-0.055481-0.8188477l-1.949646-1.949585
										c-0.2220459-0.2220459-0.5689087-0.2427979-0.8187256-0.055542l-1.0754395,0.8117676
										c-0.1942139,0.145752-0.4578857,0.159668-0.6729736,0.048584
										c-0.3885498-0.2011719-0.7909546-0.3676758-1.2141724-0.5063477
										c-0.2359619-0.076416-0.4093628-0.2706299-0.4371338-0.5065918l-0.1873169-1.3320313
										c-0.041626-0.3122559-0.3052979-0.5412598-0.6175537-0.5412598h-2.7683105
										c-0.3122559,0-0.5758667,0.2290039-0.6174927,0.5412598l-0.1804199,1.3320313
										c-0.034668,0.2359619-0.2081299,0.4301758-0.4440308,0.5065918
										c-0.4162598,0.1386719-0.8256226,0.3051758-1.2141724,0.5063477
										c-0.2150879,0.111084-0.4718018,0.097168-0.6730347-0.048584l-1.0754395-0.8117676
										c-0.2427979-0.1872559-0.5966797-0.1665039-0.8117676,0.055542l-1.956543,1.949585
										c-0.2220459,0.222168-0.2428589,0.5690918-0.055542,0.8188477l0.8118286,1.0754395
										c0.1456299,0.2011719,0.1595459,0.4578857,0.048584,0.6799316
										c-0.2012939,0.3815918-0.3677979,0.7908936-0.5065308,1.2072754
										c-0.069397,0.2358398-0.2636719,0.4093018-0.5064697,0.4439697l-1.3321533,0.1804199
										c-0.3122559,0.048584-0.541214,0.3121338-0.541214,0.6243896v2.7545166
										c0,0.3121338,0.2289581,0.5758057,0.541214,0.6175537l1.3321533,0.1872559
										c0.2427979,0.034668,0.4370728,0.208252,0.5064697,0.4440918c0.1387329,0.4162598,0.3052368,0.8256836,0.5065308,1.2072754
										c0.1109619,0.2219238,0.0970459,0.4786377-0.048584,0.6729736l-0.8118286,1.0823975
										c-0.1873169,0.2497559-0.1665039,0.5966797,0.055542,0.8186035l1.956543,1.949707
										c0.2150879,0.2219238,0.5689697,0.2427979,0.8117676,0.0554199l1.0754395-0.8117676
										c0.1942749-0.1456299,0.4509888-0.1595459,0.6730347-0.0484619
										c0.3885498,0.2011719,0.7909546,0.3676758,1.2141724,0.5064697
										c0.2359009,0.0762939,0.4093628,0.2705078,0.4440308,0.5064697l0.1804199,1.3321533
										c0.041626,0.3122559,0.3052368,0.5411377,0.6174927,0.5411377h2.7683105
										c0.3122559,0,0.5759277-0.2288818,0.6175537-0.5411377l0.1873169-1.3321533
										c0.027771-0.2359619,0.2011719-0.4301758,0.4371338-0.5064697
										c0.4232178-0.1387939,0.8256226-0.3052979,1.2141724-0.5064697c0.2220459-0.111084,0.4787598-0.097168,0.6729736,0.0484619
										l1.0754395,0.8117676c0.2498169,0.1873779,0.5966797,0.1665039,0.8187256-0.0554199l1.949646-1.949707
										c0.2220459-0.2219238,0.2427979-0.5688477,0.055481-0.8186035l-0.8117676-1.0823975
										c-0.1456909-0.1943359-0.1595459-0.4510498-0.048584-0.6729736
										c0.2012329-0.3815918,0.3677368-0.7910156,0.5065308-1.2072754
										c0.0762939-0.2358398,0.2636108-0.4094238,0.5064697-0.4440918l1.3391113-0.1872559
										c0.3052368-0.041748,0.5342407-0.3054199,0.5342407-0.6175537v-2.7613525
										C50.6759338,38.6521606,50.4469299,38.3886108,50.1416931,38.3400269z M40.2372742,46.1004028
										c-3.175293,0-5.7587891-2.5830078-5.7587891-5.7587891s2.5834961-5.7587891,5.7587891-5.7587891
										c3.1757813,0,5.7592773,2.5830078,5.7592773,5.7587891S43.4130554,46.1004028,40.2372742,46.1004028z"/>
								</g>
							</g>
						</g>
					</g>
				</g>
			</g>
		</g>
	</g>
</g>
</svg>
